<svg id="LOGO" xmlns="http://www.w3.org/2000/svg" width="0" height="0" viewBox="0 0 72 72">
  <path id="shape" d="M36,0A36,36,0,1,1,0,36,36,36,0,0,1,36,0Z" transform="translate(0 0)" fill="#f7931a"/>
  <path id="btc" d="M80.988,60.886A6.491,6.491,0,0,0,77.2,58.659a5.131,5.131,0,0,0,2.834-5.583,5.532,5.532,0,0,0-.79-2.477,4.961,4.961,0,0,0-1.785-1.687,9.882,9.882,0,0,0-2.444-.974,19.419,19.419,0,0,0-3.03-.486V42H68.656v5.3q-.865,0-2.64.042V42H62.685v5.452q-.714.021-2.1.022L56,47.452V51h2.4a1.72,1.72,0,0,1,1.926,1.472v6.209a2.067,2.067,0,0,1,.346.022h-.346v8.7a1.156,1.156,0,0,1-1.255,1.1h-2.4L56,72.461h4.327c.275,0,.67,0,1.19.011s.909.012,1.168.012V78h3.332V72.548q.908.021,2.638.022V78h3.332V72.483a26.289,26.289,0,0,0,3.148-.324,12.857,12.857,0,0,0,2.628-.747,7.1,7.1,0,0,0,2.1-1.267,5.973,5.973,0,0,0,1.4-1.926,8.181,8.181,0,0,0,.7-2.7,6.4,6.4,0,0,0-.973-4.629ZM66.081,51.237c.1,0,.386,0,.854-.01s.858-.014,1.17-.022.727.012,1.254.054a11.977,11.977,0,0,1,1.332.173,7.462,7.462,0,0,1,1.189.358,3.215,3.215,0,0,1,1.039.605,3.009,3.009,0,0,1,.66.909,2.839,2.839,0,0,1,.271,1.266,3.014,3.014,0,0,1-.194,1.1,2.079,2.079,0,0,1-.585.832,5.9,5.9,0,0,1-.8.585,3.7,3.7,0,0,1-1.049.4c-.427.1-.8.18-1.115.237a9.089,9.089,0,0,1-1.189.119c-.477.021-.837.036-1.083.043s-.58.008-1.006,0l-.745-.01V51.237Zm9.1,14.733a3.066,3.066,0,0,1-.53.866,3,3,0,0,1-.855.648,7.277,7.277,0,0,1-1.028.455,8.235,8.235,0,0,1-1.2.3q-.7.13-1.234.184t-1.266.087c-.49.021-.873.032-1.146.032s-.621,0-1.039-.012-.686-.01-.8-.01V61.21c.116,0,.458-.007,1.028-.022s1.035-.021,1.4-.021.858.021,1.494.065a12.626,12.626,0,0,1,1.6.195,10.577,10.577,0,0,1,1.417.4,4.092,4.092,0,0,1,1.245.66,3.244,3.244,0,0,1,.8.995,2.889,2.889,0,0,1,.325,1.384,2.856,2.856,0,0,1-.206,1.1Zm0,0" transform="translate(-33 -24)" fill="#fff"/>
</svg>
