<svg xmlns="http://www.w3.org/2000/svg" viewBox="0 0 29.528 36" width="0" height="0">
  <path id="icon" d="M15.365.038h-.181a2.324,2.324,0,0,0-.84,0h-.362L13.7.187A1.994,1.994,0,0,0,13.273.5L.638,13.184a2.158,2.158,0,0,0-.012,3.052l.012.012a2.207,2.207,0,0,0,3.048,0l7.528-7.512a.824.824,0,0,1,1.4.577V33.842a2.158,2.158,0,0,0,4.316,0h0V9.313a.824.824,0,0,1,1.4-.577l7.5,7.512a2.207,2.207,0,0,0,3.064,0A2.158,2.158,0,0,0,28.9,13.2l-.012-.012L16.3.582a1.959,1.959,0,0,0-.329-.264l-.362-.2" transform="translate(29.528 36) rotate(180)" fill="#fff"/>
</svg>
