<svg width="74" height="83" viewBox="0 0 74 83" fill="none" xmlns="http://www.w3.org/2000/svg">
<path d="M71.8595 81.4682C71.8595 75.3342 71.8595 72.2672 71.1024 69.7716C69.3979 64.1526 65.0008 59.7554 59.3818 58.0509C56.8861 57.2938 53.8191 57.2938 47.6851 57.2938H25.7084C19.5745 57.2938 16.5075 57.2938 14.0118 58.0509C8.39279 59.7554 3.99562 64.1526 2.29111 69.7716C1.53406 72.2672 1.53406 75.3342 1.53406 81.4682M56.4758 22.1311C56.4758 33.0548 47.6204 41.9102 36.6968 41.9102C25.7731 41.9102 16.9177 33.0548 16.9177 22.1311C16.9177 11.2075 25.7731 2.35211 36.6968 2.35211C47.6204 2.35211 56.4758 11.2075 56.4758 22.1311Z" stroke="#777DA4" stroke-width="3" stroke-linecap="round" stroke-linejoin="round"/>
</svg>
