<svg width="29" height="32" viewBox="0 0 29 32" fill="none" xmlns="http://www.w3.org/2000/svg">
<path d="M14.2353 20.4074C16.6387 20.4074 18.587 18.4591 18.587 16.0557C18.587 13.6524 16.6387 11.7041 14.2353 11.7041C11.832 11.7041 9.88366 13.6524 9.88366 16.0557C9.88366 18.4591 11.832 20.4074 14.2353 20.4074Z" stroke="#000" stroke-width="2" stroke-linecap="round" stroke-linejoin="round"/>
<path d="M10.303 26.7479L11.1508 28.6546C11.4028 29.2222 11.8141 29.7044 12.3347 30.0429C12.8554 30.3813 13.4631 30.5614 14.0841 30.5613C14.7051 30.5614 15.3128 30.3813 15.8335 30.0429C16.3541 29.7044 16.7654 29.2222 17.0175 28.6546L17.8652 26.7479C18.167 26.0714 18.6746 25.5073 19.3158 25.1362C19.961 24.764 20.7073 24.6055 21.4481 24.6833L23.5224 24.9041C24.1398 24.9694 24.763 24.8542 25.3163 24.5724C25.8695 24.2906 26.3292 23.8544 26.6395 23.3166C26.9502 22.7791 27.0982 22.163 27.0655 21.543C27.0329 20.923 26.8211 20.3259 26.4557 19.8239L25.2276 18.1365C24.7903 17.5311 24.5566 16.8025 24.5603 16.0557C24.5602 15.311 24.7961 14.5854 25.234 13.983L26.4622 12.2956C26.8275 11.7936 27.0394 11.1965 27.072 10.5765C27.1046 9.95654 26.9566 9.34044 26.6459 8.80295C26.3356 8.26513 25.876 7.82888 25.3227 7.5471C24.7694 7.26531 24.1463 7.15008 23.5288 7.2154L21.4545 7.4362C20.7138 7.514 19.9674 7.35547 19.3222 6.98331C18.6798 6.61007 18.172 6.04306 17.8717 5.36352L17.0175 3.45685C16.7654 2.88928 16.3541 2.40704 15.8335 2.0686C15.3128 1.73016 14.7051 1.55007 14.0841 1.55017C13.4631 1.55007 12.8554 1.73016 12.3347 2.0686C11.8141 2.40704 11.4028 2.88928 11.1508 3.45685L10.303 5.36352C10.0026 6.04306 9.49485 6.61007 8.85244 6.98331C8.20726 7.35547 7.46088 7.514 6.72013 7.4362L4.63938 7.2154C4.02193 7.15008 3.39878 7.26531 2.8455 7.5471C2.29223 7.82888 1.83258 8.26513 1.5223 8.80295C1.21162 9.34044 1.06361 9.95654 1.09623 10.5765C1.12884 11.1965 1.34068 11.7936 1.70604 12.2956L2.93418 13.983C3.37216 14.5854 3.60801 15.311 3.60788 16.0557C3.60801 16.8005 3.37216 17.5261 2.93418 18.1284L1.70604 19.8159C1.34068 20.3178 1.12884 20.915 1.09623 21.5349C1.06361 22.1549 1.21162 22.771 1.5223 23.3085C1.83289 23.846 2.29259 24.2821 2.84579 24.5638C3.39898 24.8455 4.02197 24.961 4.63938 24.8961L6.71368 24.6752C7.45443 24.5975 8.20081 24.756 8.84599 25.1281C9.49081 25.5003 10.0009 26.0674 10.303 26.7479Z" stroke="#000" stroke-width="2" stroke-linecap="round" stroke-linejoin="round"/>
</svg>
